<?xml version="1.0" encoding="UTF-8"?>
<svg version="1.1" xmlns="http://www.w3.org/2000/svg" width="1080" height="1080">
<path d="M0 0 C2.48469812 2.21115662 3.6312183 4.08631999 4.75488281 7.20385742 C5.06720856 8.05712112 5.3795343 8.91038483 5.70132446 9.789505 C6.03191864 10.71877304 6.36251282 11.64804108 6.703125 12.60546875 C7.05748627 13.57973312 7.41184753 14.5539975 7.77694702 15.55778503 C8.54173143 17.66315891 9.30272768 19.76991185 10.06036377 21.87786865 C11.66984434 26.35552932 13.29741494 30.82654142 14.92410278 35.29797363 C15.7536991 37.57880711 16.582367 39.85997848 17.41012573 42.14147949 C21.07837054 52.24599266 24.83432161 62.3158987 28.625 72.375 C29.84950644 75.6287002 31.07330114 78.88266775 32.296875 82.13671875 C32.59957306 82.94148651 32.90227112 83.74625427 33.21414185 84.57540894 C36.45882777 93.20850854 39.66745427 101.8549463 42.87731934 110.5010376 C48.63309765 125.99966615 54.41141988 141.48990759 60.23345947 156.96377563 C60.99010851 158.97628084 61.7454546 160.98927645 62.49945068 163.0027771 C63.54542833 165.7949205 64.59626601 168.5851858 65.6484375 171.375 C65.95914185 172.20723587 66.26984619 173.03947174 66.58996582 173.89692688 C66.87915894 174.66055038 67.16835205 175.42417389 67.46630859 176.2109375 C67.71561127 176.87399902 67.96491394 177.53706055 68.22177124 178.22021484 C69.06116775 180.28121539 69.06116775 180.28121539 71 183 C74.48167974 184.08318925 76.29821118 184.29377206 79.6875 182.875 C84.22816662 179.19337841 85.81615424 174.12532507 87.58447266 168.71655273 C87.82404694 168.00002029 88.06362122 167.28348785 88.31045532 166.54524231 C89.10078045 164.17657542 89.88248565 161.80516023 90.6640625 159.43359375 C91.22065582 157.75887711 91.77774315 156.08432459 92.33529663 154.40992737 C93.80694772 149.98537349 95.27114212 145.55838501 96.73400879 141.13092041 C97.90141119 137.60192326 99.07415109 134.07471254 100.24727249 130.54761314 C101.39600444 127.09315673 102.54269646 123.6380253 103.68898773 120.18275833 C104.25491279 118.47736697 104.82128222 116.77212301 105.38809967 115.06702805 C108.23833908 106.48873667 111.05405953 97.90529322 113.70214844 89.26220703 C114.11339278 87.93257181 114.52479489 86.60298537 114.93637085 85.27345276 C115.68206495 82.84851668 116.41391062 80.41926198 117.12930298 77.98521423 C117.45321014 76.93443192 117.77711731 75.8836496 118.11083984 74.80102539 C118.38181488 73.89058975 118.65278992 72.98015411 118.93197632 72.04212952 C120 70 120 70 122.11807251 69.19993591 C122.73910858 69.13395706 123.36014465 69.06797821 124 69 C132.09900637 84.17998121 138.20797952 100.10062661 144.35820007 116.14657593 C152.51880137 142.80068174 152.51880137 142.80068174 168 164 C170.78444577 164.75383338 170.78444577 164.75383338 174 164 C180.97487569 159.42499092 185.04528162 152.83121685 189.25 145.8125 C190.43794186 143.8577724 191.63049121 141.9058358 192.828125 139.95703125 C193.6001123 138.67276245 193.6001123 138.67276245 194.38769531 137.36254883 C194.91975586 136.58290771 195.45181641 135.8032666 196 135 C196.50370117 134.24291748 197.00740234 133.48583496 197.52636719 132.70581055 C201.59780871 129.8981554 205.94125828 130.58351893 210.75 130.75 C211.73355469 130.76804687 212.71710937 130.78609375 213.73046875 130.8046875 C216.15463783 130.85175874 218.57682059 130.91749258 221 131 C221.00586624 131.556306 221.01173248 132.112612 221.01777649 132.68577576 C221.08203887 138.51048665 221.1665405 144.33466169 221.26245117 150.15893555 C221.29556998 152.32845973 221.32364193 154.49806738 221.34643555 156.66772461 C221.38022212 159.79837389 221.43254978 162.92826726 221.48828125 166.05859375 C221.49467117 167.01833603 221.5010611 167.97807831 221.50764465 168.96690369 C221.70622263 178.19923892 223.62503166 185.47030315 230.03515625 192.2734375 C235.9123057 197.43785113 242.49180111 199.10222493 250.19490051 199.15821838 C251.21988647 199.1680072 252.24487244 199.17779602 253.30091858 199.18788147 C254.41438156 199.19363693 255.52784454 199.1993924 256.67504883 199.20532227 C257.855961 199.21522186 259.03687317 199.22512146 260.25357056 199.23532104 C263.4824977 199.26145385 266.71141988 199.28333848 269.94038987 199.30332303 C273.31833403 199.32523788 276.696234 199.35259959 280.07414246 199.37937927 C286.46653382 199.42923198 292.85894982 199.47419824 299.25138921 199.51740164 C306.53071865 199.56683757 313.81000375 199.62173207 321.08929026 199.67708123 C336.05948548 199.79078729 351.02972251 199.89765096 366 200 C366.00238835 200.60922995 366.00477671 201.21845989 366.00723743 201.84615135 C366.06650199 216.70422753 366.14212487 231.56215376 366.23571491 246.42004967 C366.28058529 253.60537621 366.32001985 260.79065417 366.34643555 267.97607422 C366.3694869 274.24252894 366.40296379 280.50882875 366.44870156 286.77516043 C366.4725383 290.08987046 366.48977362 293.40439676 366.49761391 296.71918869 C366.50727555 300.42939615 366.53536131 304.13905063 366.56762695 307.84912109 C366.56619186 308.93525696 366.56475677 310.02139282 366.5632782 311.14044189 C366.69082191 321.55138923 368.66812796 330.29350676 376 338 C382.50737485 343.15167176 388.63699784 344.29470573 396.6796875 344.4140625 C397.89883347 344.44311172 397.89883347 344.44311172 399.14260864 344.4727478 C401.71996812 344.53217883 404.29737315 344.57878181 406.875 344.625 C408.63022702 344.66321343 410.38543597 344.70226709 412.140625 344.7421875 C416.42693524 344.83784999 420.71333319 344.92201449 425 345 C423.38055382 349.27199512 421.24754941 352.76373951 418.5625 356.4375 C418.12075439 357.04730713 417.67900879 357.65711426 417.22387695 358.28540039 C406.7258939 372.67234603 395.56453132 386.86110665 382.7421875 399.2578125 C380.96662805 401.03337195 379.36393156 402.88968202 377.75 404.8125 C373.41521665 409.84675975 368.46236664 414.19974023 363.52441406 418.62402344 C362.09441888 419.91477501 360.6832018 421.22624474 359.2734375 422.5390625 C332.91249088 447.03374741 301.41163138 467.67242268 268.96484375 483.05810547 C266.880417 484.05732495 264.81544739 485.09106546 262.75 486.12890625 C225.37401004 504.67672603 183.34643207 516.07861196 142 521 C141.2946814 521.08580322 140.58936279 521.17160645 139.8626709 521.26000977 C124.20826915 523.11448086 108.62673684 523.40151074 92.875 523.375 C90.96146729 523.37368576 90.96146729 523.37368576 89.00927734 523.37234497 C68.41267162 523.32581261 48.30514653 522.53242324 28 519 C27.29842773 518.87884827 26.59685547 518.75769653 25.87402344 518.63287354 C5.84726633 515.13593334 -13.65785413 510.29788983 -33 504 C-33.8981543 503.71157227 -34.79630859 503.42314453 -35.72167969 503.12597656 C-49.53896003 498.64907325 -62.77319403 492.97690731 -76 487 C-76.81823242 486.63680664 -77.63646484 486.27361328 -78.47949219 485.89941406 C-106.72433885 473.33964594 -132.83994292 456.18766412 -157 437 C-158.01449219 436.19949219 -159.02898437 435.39898438 -160.07421875 434.57421875 C-165.96601096 429.84229434 -171.5563285 424.83127529 -177.08984375 419.69140625 C-179.74053419 417.23996234 -182.42449333 414.83372423 -185.125 412.4375 C-192.14180425 406.13026022 -198.86293455 399.52958956 -204.98828125 392.34765625 C-206.57023903 390.50152688 -208.17198426 388.68252912 -209.79296875 386.87109375 C-233.86660489 359.79857465 -252.75588177 329.27711722 -269 297 C-269.5561499 295.90969482 -269.5561499 295.90969482 -270.12353516 294.79736328 C-294.01275073 247.71584374 -308.20887036 190.80930323 -308.0246582 138.06079102 C-308.02287819 137.37706673 -308.02109818 136.69334244 -308.01926422 135.98889923 C-308.01467527 134.32592675 -308.00760191 132.66296143 -308 131 C-306.8675032 130.9845388 -306.8675032 130.9845388 -305.71212769 130.96876526 C-302.03464257 130.91834088 -298.35716327 130.86750697 -294.6796875 130.81640625 C-293.99296211 130.80687109 -293.30623672 130.79733593 -292.59870148 130.78751183 C-284.27384861 130.67150049 -275.94911207 130.54996556 -267.62451172 130.41699219 C-266.4818154 130.39875617 -266.4818154 130.39875617 -265.31603432 130.38015175 C-262.25116732 130.33112461 -259.18630287 130.28195517 -256.12144852 130.2321434 C-247.79036995 130.0969649 -239.46001039 129.9763144 -231.12802124 129.91123962 C-227.58057449 129.88085023 -224.03355262 129.8326736 -220.48638916 129.77902222 C-218.92279213 129.75980512 -217.3590634 129.74920735 -215.79534912 129.74758911 C-213.67769757 129.74456134 -211.56253346 129.71206736 -209.4453125 129.671875 C-207.73625732 129.65785645 -207.73625732 129.65785645 -205.99267578 129.64355469 C-202.05492309 128.7967676 -200.58036 127.01537624 -198 124 C-196.99259766 122.88044922 -196.99259766 122.88044922 -195.96484375 121.73828125 C-185.33920663 109.02436863 -176.79890554 94.74696695 -167.94628906 80.77905273 C-161.5421526 70.6779504 -154.91150649 60.76250292 -148 51 C-146.17440796 51.10293579 -146.17440796 51.10293579 -144 52 C-142.55288696 54.70101929 -142.55288696 54.70101929 -141.20947266 58.35302734 C-140.96116573 59.01414143 -140.71285881 59.67525551 -140.45702744 60.35640335 C-139.63610895 62.55268239 -138.83782081 64.75651259 -138.0390625 66.9609375 C-137.46438134 68.51060527 -136.88815474 70.05970072 -136.31045532 71.60824585 C-135.11435874 74.82101646 -133.92685904 78.03676813 -132.74621582 81.25524902 C-131.13513527 85.64247354 -129.49735008 90.01913882 -127.84667969 94.39160156 C-127.33434993 95.74930418 -126.82203099 97.10701088 -126.3097229 98.46472168 C-126.05677082 99.13504929 -125.80381874 99.80537689 -125.54320145 100.49601746 C-124.23219736 103.97557819 -122.92877724 107.45797333 -121.62548828 110.94042969 C-121.36183409 111.6448671 -121.09817989 112.3493045 -120.82653618 113.0750885 C-120.28574139 114.52003886 -119.7449631 115.96499539 -119.20420074 117.40995789 C-117.7737692 121.23106651 -116.34163615 125.05153734 -114.90966797 128.87207031 C-109.6881905 142.80451134 -104.47117869 156.73862041 -99.2586956 170.67442894 C-96.77629005 177.311065 -94.29244907 183.94716282 -91.80771065 190.5829258 C-90.04180036 195.29937884 -88.27791341 200.01658181 -86.51560211 204.73438072 C-85.41822348 207.67071627 -84.3189775 210.60635025 -83.21924591 213.54180527 C-82.71442419 214.89044081 -82.21035505 216.23935836 -81.70714569 217.58859634 C-80.16060476 221.73456853 -78.58971001 225.87039813 -77 230 C-76.56830505 231.13924927 -76.13661011 232.27849854 -75.6918335 233.45227051 C-75.26871887 234.52795288 -74.84560425 235.60363525 -74.40966797 236.71191406 C-74.04114716 237.66100647 -73.67262634 238.61009888 -73.29293823 239.58795166 C-71.843964 242.29109385 -70.66835865 243.50903294 -68 245 C-63.79374114 244.77861795 -61.52432557 244.34955038 -58 242 C-57.18554098 240.15679137 -57.18554098 240.15679137 -56.72669983 237.9598999 C-56.51909153 237.10982676 -56.31148323 236.25975361 -56.09758377 235.38392067 C-55.88112576 234.44479521 -55.66466774 233.50566975 -55.44165039 232.53808594 C-55.20277981 231.54481482 -54.96390923 230.55154369 -54.71780014 229.52817345 C-53.91636801 226.18284509 -53.13212047 222.83371959 -52.34765625 219.484375 C-51.77883466 217.09463421 -51.20896043 214.70514377 -50.6381073 212.31588745 C-49.41014627 207.16595476 -48.18952317 202.01436664 -46.97546387 196.86114502 C-45.2210528 189.41448107 -43.45324919 181.97104798 -41.68209815 174.52835011 C-38.81864778 162.49407683 -35.96566782 150.45734731 -33.11962891 138.41894531 C-30.38691139 126.85991166 -27.65033949 115.30180445 -24.90771484 103.74511719 C-24.74015446 103.0390502 -24.57259408 102.33298321 -24.39995611 101.60552025 C-23.22907639 96.67186199 -22.05793805 91.73826515 -20.88671875 86.8046875 C-19.59162939 81.34930429 -18.29660097 75.89390662 -17.00170898 70.43847656 C-16.844853 69.77767027 -16.68799701 69.11686398 -16.52638781 68.43603325 C-14.5055029 59.92198919 -12.4876966 51.40722323 -10.47318745 42.89166832 C-9.32065661 38.0199382 -8.167215 33.14842392 -7.01372719 28.27692032 C-6.47811282 26.01357721 -5.94298698 23.75011842 -5.40837669 21.48653793 C-4.68132994 18.40822008 -3.95266381 15.33028983 -3.22363281 12.25244141 C-3.01090257 11.34966839 -2.79817232 10.44689537 -2.5789957 9.51676559 C-2.38399951 8.69490391 -2.18900331 7.87304222 -1.98809814 7.02627563 C-1.82020405 6.31602549 -1.65230995 5.60577534 -1.47932816 4.87400246 C-1.05859986 3.22910459 -0.53690793 1.6107238 0 0 Z " fill="#000000" transform="translate(378,417)"/>
<path d="M0 0 C1.79080994 -0.01052147 1.79080994 -0.01052147 3.61779785 -0.02125549 C7.45617471 -0.03869218 11.29439748 -0.04510896 15.1328125 -0.046875 C16.44115051 -0.04754974 17.74948853 -0.04822449 19.09747314 -0.04891968 C37.68740205 -0.03364951 55.87000278 0.26200178 74.2578125 3.203125 C75.36898438 3.36941406 76.48015625 3.53570312 77.625 3.70703125 C120.0888325 10.14817438 161.25326653 23.36863477 199.35839844 43.21875 C201.28852125 44.21903987 203.22920173 45.19621704 205.171875 46.171875 C223.2489663 55.36428217 240.53739043 66.25367825 256.47265625 78.79882812 C258.25600251 80.20170117 260.05201409 81.58674387 261.8515625 82.96875 C272.5313244 91.21048489 283.09055701 99.71824036 292.48046875 109.42578125 C294.26829299 111.21360549 296.1339739 112.82847068 298.0703125 114.453125 C303.10457225 118.78790835 307.45755273 123.74075836 311.88183594 128.67871094 C313.17258751 130.10870612 314.48405724 131.5199232 315.796875 132.9296875 C322.39756908 140.0332916 328.40273921 147.48457947 334.2578125 155.203125 C334.86334961 156.00008789 335.46888672 156.79705078 336.09277344 157.61816406 C338.03234117 160.18112938 339.95966838 162.75281828 341.8828125 165.328125 C342.49930664 166.14603516 343.11580078 166.96394531 343.75097656 167.80664062 C344.32299805 168.57943359 344.89501953 169.35222656 345.484375 170.1484375 C345.99564941 170.83437988 346.50692383 171.52032227 347.03369141 172.22705078 C348.27848502 174.23649624 348.82568136 175.89261219 349.2578125 178.203125 C348.184104 178.2124707 347.11039551 178.22181641 346.00415039 178.23144531 C341.98372372 178.2716089 337.96404125 178.3374379 333.9440918 178.41064453 C332.21111684 178.43870237 330.47801753 178.45999175 328.74487305 178.47412109 C317.58775096 178.57049704 309.52934707 179.10250624 300.0078125 185.328125 C293.82018476 191.79700854 291.16447873 199.507947 291.09959412 208.36006165 C291.0898053 209.37663345 291.08001648 210.39320526 291.06993103 211.44058228 C291.06417557 212.54469452 291.0584201 213.64880676 291.05249023 214.78637695 C291.03764084 216.54311485 291.03764084 216.54311485 291.02249146 218.33534241 C290.99091986 222.20400983 290.96613605 226.07268954 290.94140625 229.94140625 C290.92083298 232.62469398 290.89988357 235.30797613 290.87843323 237.99125671 C290.82858183 244.33052394 290.78361509 250.66981598 290.74041086 257.00913161 C290.69097381 264.22800295 290.63607973 271.44682958 290.58073127 278.66565764 C290.46702722 293.51143814 290.36016312 308.35726171 290.2578125 323.203125 C289.64250703 323.20551335 289.02720156 323.20790171 288.39325047 323.21036243 C273.39364713 323.26960224 258.39422217 323.34520939 243.39479923 323.43883991 C236.14106261 323.4837286 228.88737433 323.52315904 221.63354492 323.54956055 C215.30813678 323.57259696 208.9828825 323.60605748 202.65759653 323.65182656 C199.31103004 323.67568346 195.96475512 323.69290587 192.61808968 323.70073891 C188.87415169 323.71038745 185.13076471 323.73845772 181.38696289 323.77075195 C180.28788101 323.76931686 179.18879913 323.76788177 178.05641174 323.7664032 C169.12538206 323.87506912 161.31120439 325.40366944 154.2578125 331.203125 C147.21962872 338.93331246 145.9734611 346.13677089 145.84375 356.29296875 C145.82438385 357.23749405 145.8050177 358.18201935 145.7850647 359.15516663 C145.72563558 362.15022967 145.67903096 365.14533191 145.6328125 368.140625 C145.59459894 370.18035462 145.55554527 372.22006869 145.515625 374.25976562 C145.4199644 379.24075799 145.33579885 384.22182583 145.2578125 389.203125 C144.37520752 389.20723389 143.49260254 389.21134277 142.58325195 389.21557617 C139.2930521 389.24262484 136.00469852 389.29177451 132.71508789 389.35571289 C131.29430548 389.37884003 129.87335292 389.39327626 128.45239258 389.39868164 C126.40338784 389.40801161 124.357039 389.44907666 122.30859375 389.49609375 C121.07794189 389.5118042 119.84729004 389.52751465 118.5793457 389.54370117 C113.25226215 390.60128681 110.63462203 394.36457942 107.6875 398.68359375 C107.05521484 399.59334961 107.05521484 399.59334961 106.41015625 400.52148438 C105.55064769 401.77920561 104.69127513 403.0370198 103.83203125 404.29492188 C101.79532019 407.22465239 100.26116192 409.20089205 97.2578125 411.203125 C88.73144879 391.96183326 80.27392783 372.69129883 71.8828125 353.390625 C71.46946655 352.4403241 71.05612061 351.49002319 70.63024902 350.51092529 C69.81497259 348.63616203 69.00018901 346.76118436 68.18591309 344.88598633 C67.39091409 343.05659211 66.5941471 341.2279651 65.79553223 339.40014648 C63.75023575 334.70591948 61.75606045 329.99738797 59.83105469 325.25244141 C59.43437592 324.2883284 59.03769714 323.32421539 58.6289978 322.33088684 C57.875138 320.49408351 57.13384468 318.65205421 56.40737915 316.804245 C54.37549526 311.88756129 54.37549526 311.88756129 50.68603516 308.14916992 C47.60183532 306.94755376 45.53897113 306.7144418 42.2578125 307.203125 C37.9582397 310.49659776 36.4574242 314.80662545 34.5703125 319.703125 C34.22782471 320.57839844 33.88533691 321.45367187 33.5324707 322.35546875 C27.7865899 337.34856554 23.19475123 352.75696447 18.55859375 368.12109375 C17.62546561 371.21107838 16.69181056 374.30090322 15.7578125 377.390625 C15.52809753 378.15161499 15.29838257 378.91260498 15.06170654 379.69665527 C10.92212724 393.37859372 6.31375135 406.82922906 1.2578125 420.203125 C0.2678125 420.203125 -0.7221875 420.203125 -1.7421875 420.203125 C-12.73576308 390.5443615 -23.63080177 360.85348751 -34.3046875 331.078125 C-36.21851667 325.74080175 -38.13260354 320.40357089 -40.046875 315.06640625 C-40.28212765 314.4104566 -40.51738029 313.75450695 -40.75976181 313.07868004 C-45.68768641 299.33984455 -50.63897308 285.60954861 -55.61618042 271.88848877 C-56.48189894 269.50069785 -57.34644929 267.11248303 -58.20974731 264.72381592 C-59.39835804 261.43580317 -60.59116528 258.14934342 -61.78515625 254.86328125 C-62.12890289 253.91003464 -62.47264954 252.95678802 -62.82681274 251.97465515 C-66.06158389 241.64644042 -66.06158389 241.64644042 -72.1171875 233.078125 C-76.0184668 231.77769857 -79.10192996 232.38299623 -82.7421875 234.203125 C-83.64925704 237.18217999 -84.4346821 240.12480083 -85.16479492 243.1484375 C-85.39735552 244.08369766 -85.62991611 245.01895782 -85.869524 245.9825592 C-86.64124126 249.09579185 -87.40082722 252.21184956 -88.16015625 255.328125 C-88.69965267 257.51747154 -89.23971508 259.70667868 -89.78031921 261.89575195 C-91.44749772 268.66167322 -93.09709629 275.43180381 -94.7421875 282.203125 C-95.11196087 283.72380585 -95.11196087 283.72380585 -95.48920441 285.27520752 C-98.7967828 298.88419646 -102.06358228 312.50283901 -105.31866455 326.12446594 C-106.58631393 331.42682809 -107.85678873 336.7285133 -109.12695312 342.03027344 C-111.24957097 350.89160166 -113.37067486 359.75329095 -115.49072266 368.61523438 C-118.7937075 382.42141027 -122.10153305 396.22642441 -125.41015625 410.03125 C-126.48333137 414.50911115 -127.55648848 418.98697662 -128.62963867 423.46484375 C-128.88932969 424.54842918 -129.14902071 425.63201462 -129.41658115 426.74843597 C-132.13021524 438.07165075 -134.84259958 449.3951648 -137.5546875 460.71875 C-137.77197699 461.62598061 -137.98926647 462.53321121 -138.21314049 463.46793365 C-139.38953052 468.37965428 -140.56587981 473.29138466 -141.7421875 478.203125 C-144.38507353 475.88074831 -145.53538376 473.74875877 -146.80078125 470.48364258 C-147.18041519 469.5157933 -147.56004913 468.54794403 -147.95118713 467.55076599 C-148.35659225 466.49373978 -148.76199738 465.43671356 -149.1796875 464.34765625 C-149.61212265 463.23934952 -150.0445578 462.13104279 -150.49009705 460.989151 C-151.6688033 457.96469533 -152.84062839 454.93767917 -154.00974655 451.90950775 C-155.23946865 448.7297982 -156.47840463 445.55368675 -157.71704102 442.37744141 C-159.23850854 438.47479822 -160.75952558 434.57198636 -162.2769928 430.66778564 C-166.64090522 419.44183059 -171.06078819 408.23847792 -175.50311279 397.04333496 C-177.45065194 392.13513625 -179.39500976 387.22567733 -181.33984375 382.31640625 C-181.89835022 380.90698257 -181.89835022 380.90698257 -182.46813965 379.46908569 C-186.79902848 368.53891158 -191.11983012 357.60474445 -195.4296875 346.66625977 C-196.02210458 345.16291102 -196.61455223 343.65957433 -197.20703125 342.15625 C-197.49625458 341.42236557 -197.78547791 340.68848114 -198.08346558 339.93235779 C-199.91467076 335.28979353 -201.75651189 330.65157722 -203.60534668 326.01600647 C-204.83986619 322.91949116 -206.07067457 319.82150757 -207.30108643 316.72335815 C-207.88105863 315.26601432 -208.46285016 313.80939303 -209.04656982 312.35354614 C-209.84423745 310.36379404 -210.63568584 308.37167473 -211.42578125 306.37890625 C-212.09951782 304.69148315 -212.09951782 304.69148315 -212.78686523 302.9699707 C-213.7421875 300.203125 -213.7421875 300.203125 -213.7421875 297.203125 C-215.13901832 297.23660025 -216.53499387 297.30644284 -217.9296875 297.390625 C-218.70699219 297.42542969 -219.48429688 297.46023438 -220.28515625 297.49609375 C-226.78308718 299.36592761 -230.60060016 307.02270017 -234.2421875 312.328125 C-235.16185303 313.65493286 -235.16185303 313.65493286 -236.10009766 315.00854492 C-240.66113559 321.59925059 -245.1849539 328.21582947 -249.70068359 334.83764648 C-254.72604014 342.20145279 -259.8191666 349.51737762 -264.91674805 356.83129883 C-269.37227796 363.22627559 -273.80633863 369.63524222 -278.20556641 376.0690918 C-278.97114238 377.18704374 -279.74790742 378.2974769 -280.53933716 379.39727783 C-281.77681179 381.1538817 -281.77681179 381.1538817 -282.58453369 383.03114319 C-283.74987949 385.26554483 -284.76750446 386.61609604 -286.7421875 388.203125 C-291.26563496 389.28540729 -295.73814618 389.17688586 -300.37109375 389.13671875 C-301.75088905 389.14912154 -303.13066027 389.16452031 -304.51039124 389.182724 C-308.17612309 389.22235765 -311.84062994 389.2193943 -315.50650787 389.20687103 C-319.16057766 389.20074839 -322.81431102 389.23173854 -326.46826172 389.25830078 C-334.46768703 389.30790081 -342.46638889 389.29657237 -350.46588135 389.27178955 C-354.24222208 389.26127398 -358.01857051 389.2569337 -361.79492188 389.25195312 C-369.11069663 389.24145468 -376.42643569 389.22455659 -383.7421875 389.203125 C-383.79088812 382.81903926 -383.81883198 376.49199439 -383.2265625 370.12890625 C-383.1121582 368.89769043 -382.99775391 367.66647461 -382.87988281 366.39794922 C-382.75194336 365.11678223 -382.62400391 363.83561523 -382.4921875 362.515625 C-382.4252771 361.84227112 -382.3583667 361.16891724 -382.28942871 360.47515869 C-377.18430121 309.60781184 -362.71720285 261.82341023 -339.7421875 216.203125 C-339.35885254 215.43000977 -338.97551758 214.65689453 -338.58056641 213.86035156 C-326.31363871 189.19200268 -310.56513137 166.17674526 -292.7421875 145.203125 C-291.83455174 144.12116394 -290.92700495 143.03912824 -290.01953125 141.95703125 C-278.48651748 128.2834932 -266.43780456 114.68648164 -252.83984375 103.02734375 C-251.40947566 101.7834296 -250.00118025 100.51378431 -248.61328125 99.22265625 C-241.43146968 92.55122723 -233.7152999 86.66974079 -225.87646484 80.80224609 C-223.90508347 79.32517586 -221.94226734 77.83741174 -219.98046875 76.34765625 C-163.17996454 33.55758541 -94.15148742 8.64983685 -23.7421875 1.203125 C-22.94832642 1.11724121 -22.15446533 1.03135742 -21.33654785 0.94287109 C-14.2150969 0.22555179 -7.15458926 0.02808333 0 0 Z " fill="#000000" transform="translate(453.7421875,139.796875)"/>
<path d="M0 0 C1.53986572 -0.01073296 1.53986572 -0.01073296 3.11083984 -0.02168274 C6.50143036 -0.03858 9.89070066 -0.0191599 13.28125 0.00219727 C15.63867299 0.00136867 17.99609592 -0.00109036 20.35351562 -0.00511169 C25.29314574 -0.00797042 30.23232262 0.00673959 35.171875 0.03417969 C41.50404143 0.06826188 47.83539731 0.06224457 54.16760254 0.04351711 C59.03522498 0.03294935 63.90265877 0.04188306 68.77026367 0.05690193 C71.10505615 0.0620858 73.43986831 0.06159948 75.7746582 0.05535698 C79.0377032 0.04990773 82.29958727 0.07027219 85.5625 0.09765625 C86.52784668 0.09113037 87.49319336 0.08460449 88.48779297 0.07788086 C92.77826398 0.13911584 95.1438035 0.23565586 98.85742188 2.53944397 C101.84178534 5.78415811 101.90701678 7.6125072 101.91255188 11.93185425 C101.91856415 13.61855225 101.91856415 13.61855225 101.92469788 15.33932495 C101.92416916 16.57884918 101.92364044 17.81837341 101.9230957 19.09545898 C101.92842899 21.0922721 101.93376825 23.0890852 101.93933237 25.08589768 C101.94453466 27.23611766 101.94744464 29.38633151 101.94991493 31.53655624 C101.95581939 36.01571263 101.9723542 40.49478933 101.99125671 44.97390747 C101.99759423 46.50662799 102.00391986 48.03934855 102.01023388 49.57206917 C102.01339969 50.33970408 102.0165655 51.10733899 102.01982725 51.89823556 C102.0619252 62.32822039 102.09488395 72.75816829 102.10717773 83.18823242 C102.11555219 90.22081154 102.13801986 97.25319365 102.1765334 104.28567421 C102.19631525 108.00821576 102.20869173 111.73046267 102.20369911 115.45306015 C102.1981986 119.60496798 102.22342822 123.75614054 102.2512207 127.90795898 C102.24461929 129.14343475 102.23801788 130.37891052 102.23121643 131.65182495 C102.24368408 132.78192993 102.25615173 133.91203491 102.26899719 135.0763855 C102.27138555 136.05826277 102.2737739 137.04014004 102.27623463 138.05177116 C102.94020125 141.44293642 104.00466038 142.60828261 106.78125 144.63110352 C109.38374046 145.22465518 109.38374046 145.22465518 112.27781677 145.12989807 C113.39517212 145.1394754 114.51252747 145.14905273 115.66374207 145.15892029 C116.88515396 145.14917679 118.10656586 145.13943329 119.36499023 145.12939453 C120.65476776 145.13491333 121.94454529 145.14043213 123.27340698 145.14611816 C126.07652786 145.15806542 128.87927417 145.15758237 131.68240166 145.14752388 C136.11588387 145.13196018 140.54898151 145.14564299 144.98243713 145.16355896 C153.59421668 145.19437939 162.20587874 145.1958802 170.81770325 145.19390869 C181.77588984 145.19251589 192.73398596 145.20286773 203.69210583 145.24248642 C208.09807226 145.25741616 212.50369815 145.25715298 216.90966976 145.24500859 C218.99129236 145.24143097 221.07277364 145.24461313 223.15438843 145.25079346 C225.6906611 145.25818997 228.22699673 145.25487079 230.76322937 145.23881531 C231.88340454 145.24557281 233.00357971 145.25233032 234.15769958 145.2592926 C235.61417483 145.25841314 235.61417483 145.25841314 237.10007381 145.25751591 C241.23871809 145.83418305 243.86859506 147.71844858 246.78125 150.63110352 C247.03851891 152.55270195 247.03851891 152.55270195 247.04867554 154.9447937 C247.06147049 156.30333969 247.06147049 156.30333969 247.07452393 157.68933105 C247.07361755 158.68573608 247.07271118 159.68214111 247.07177734 160.70874023 C247.07849457 161.75599274 247.08521179 162.80324524 247.09213257 163.88223267 C247.1111947 167.3584665 247.11504096 170.83450811 247.1171875 174.31079102 C247.1236099 176.71973756 247.13033783 179.1286833 247.13735962 181.53762817 C247.14935309 186.59338185 247.15303833 191.64906708 247.15185547 196.70483398 C247.15165221 203.19068589 247.17895303 209.67609997 247.21339989 216.16184807 C247.23561262 221.13919092 247.23969473 226.1164275 247.23863602 231.09381485 C247.24100052 233.48527663 247.24987146 235.87674097 247.26530075 238.26815414 C247.28484572 241.61064243 247.27916728 244.95217481 247.26708984 248.29467773 C247.27832886 249.2870343 247.28956787 250.27939087 247.30114746 251.30181885 C247.23959526 257.98854577 247.23959526 257.98854577 244.93838501 261.21463013 C241.38090598 263.55063337 238.54919495 263.75704068 234.39820862 263.7624054 C233.28078278 263.76641357 232.16335693 263.77042175 231.0120697 263.77455139 C229.78549149 263.77402267 228.55891327 263.77349396 227.29516602 263.77294922 C225.31312186 263.77828245 223.33107771 263.78362165 221.34903419 263.78918588 C219.21777672 263.79438336 217.08652541 263.79729656 214.95526314 263.79976845 C210.51383197 263.80567917 206.07248091 263.82221945 201.63108826 263.84111023 C200.11059289 263.84744746 198.59009747 263.85377308 197.06960201 263.86008739 C195.92747165 263.86483611 195.92747165 263.86483611 194.76226795 263.86968076 C184.42217385 263.91176438 174.08211742 263.94474287 163.74194336 263.95703125 C156.76685491 263.96540569 149.79196509 263.98787161 142.81697601 264.02638692 C139.12574785 264.04616561 135.43481673 264.05854621 131.74353218 264.05355263 C127.62765366 264.04805227 123.51251686 264.07328087 119.39672852 264.10107422 C118.17217453 264.09447281 116.94762054 264.0878714 115.68595886 264.08106995 C114.5657132 264.0935376 113.44546753 264.10600525 112.29127502 264.11885071 C111.31807092 264.12123906 110.34486681 264.12362741 109.34217167 264.12608814 C105.96298839 264.79246522 104.79800683 265.86389501 102.78125 268.63110352 C102.19026007 271.25060779 102.19026007 271.25060779 102.28918457 274.16563416 C102.2810524 275.29140366 102.27292023 276.41717316 102.26454163 277.57705688 C102.27585617 278.80781952 102.28717072 280.03858215 102.29882812 281.30664062 C102.29282244 283.30141807 102.2868157 285.29619551 102.28076935 287.29097283 C102.27814087 289.43321775 102.28537544 291.57522987 102.2953949 293.7174511 C102.31573435 298.18452768 102.30575324 302.65122125 102.2911377 307.11830139 C102.26210428 317.40797678 102.27283308 327.6975396 102.28383636 337.98723602 C102.29351147 347.41587742 102.29479145 356.84431915 102.26395559 366.27292639 C102.25058326 370.71243539 102.25653964 375.15137028 102.27732086 379.59084499 C102.2841439 381.68827567 102.28187732 383.78545971 102.27552795 385.88288879 C102.26784422 388.43846578 102.27442684 390.99414139 102.29795837 393.54962158 C102.2898262 394.67821091 102.28169403 395.80680023 102.27331543 396.96958923 C102.27482353 397.94794707 102.27633163 398.92630491 102.27788544 399.93430996 C101.63864061 403.40549065 100.18469743 405.09635484 97.78125 407.63110352 C95.46805863 408.7876992 94.12539764 408.76644827 91.55021667 408.78500366 C90.66279282 408.79360413 89.77536896 408.80220459 88.86105347 408.81106567 C87.88492096 408.81532562 86.90878845 408.81958557 85.90307617 408.82397461 C84.8769371 408.8321521 83.85079803 408.84032959 82.79356384 408.84875488 C79.38712148 408.87363172 75.98072082 408.89013 72.57421875 408.90454102 C71.41284204 408.90986469 70.25146534 408.91518837 69.0548954 408.92067337 C62.90891809 408.94741375 56.76296117 408.96678662 50.61694336 408.98120117 C44.26116911 408.99785927 37.90591236 409.04264489 31.55033398 409.09357262 C26.66990038 409.12718733 21.78959053 409.13877227 16.9090519 409.14442825 C14.56584018 409.15115571 12.22263703 409.16641624 9.87953758 409.19031906 C6.60179523 409.22185094 3.32546091 409.22202494 0.04760742 409.21459961 C-0.92245239 409.23100494 -1.89251221 409.24741028 -2.89196777 409.26431274 C-7.08327887 409.22539546 -9.62326212 408.96553239 -13.32215881 406.88821411 C-16.3177397 401.74375372 -15.89463233 396.78299123 -15.83056641 390.93383789 C-15.83623123 389.64391434 -15.84189606 388.35399078 -15.84773254 387.02497864 C-15.8598948 384.22451714 -15.85646506 381.42466522 -15.84090042 378.6242218 C-15.81655825 374.19482285 -15.82808844 369.76595636 -15.84457397 365.33654785 C-15.86905421 357.53278173 -15.86327272 349.72925838 -15.85076904 341.92547607 C-15.83217803 330.17681646 -15.83704484 318.42820298 -15.87080324 306.67957735 C-15.88230986 302.2777669 -15.87788876 297.87634472 -15.86078286 293.47455597 C-15.85478361 291.3954043 -15.85550781 289.31638377 -15.85917664 287.23722839 C-15.86341869 284.70415082 -15.85689365 282.17102316 -15.83757019 279.63801575 C-15.84288254 278.51928574 -15.84819489 277.40055573 -15.85366821 276.2479248 C-15.85178308 275.27824013 -15.84989796 274.30855545 -15.8479557 273.30948639 C-16.33007502 269.82696214 -17.71708034 267.13277318 -20.21875 264.63110352 C-21.94094034 264.52919821 -23.66732027 264.49756885 -25.39251709 264.49307251 C-26.5141626 264.48761917 -27.63580811 264.48216583 -28.79144287 264.47654724 C-30.03299133 264.47550491 -31.27453979 264.47446259 -32.55371094 264.47338867 C-34.54788118 264.46558952 -36.54205141 264.45778632 -38.53622103 264.44983077 C-40.68678182 264.44210236 -42.83733832 264.43672801 -44.98790741 264.43187332 C-49.46725914 264.42121232 -53.94653482 264.40097172 -58.42584229 264.37875366 C-71.16569529 264.31676835 -83.90554465 264.2628335 -96.64550781 264.22973633 C-103.67659902 264.21138973 -110.70756368 264.18245111 -117.73856187 264.14173162 C-121.46054392 264.12065763 -125.18236645 264.10520387 -128.90441132 264.10292435 C-133.05852189 264.1003774 -137.2121893 264.07491291 -141.36621094 264.04760742 C-143.21638824 264.05211662 -143.21638824 264.05211662 -145.10394287 264.05671692 C-146.23686768 264.04562393 -147.36979248 264.03453094 -148.53704834 264.02310181 C-149.51930264 264.01979166 -150.50155693 264.01648151 -151.51357651 264.01307106 C-154.76991384 263.55327978 -156.60713429 262.61636974 -159.21875 260.63110352 C-161.12116023 257.82377223 -161.47035435 255.58710157 -161.47944641 252.23548889 C-161.48653122 251.36214401 -161.49361603 250.48879913 -161.50091553 249.58898926 C-161.49843811 248.63874878 -161.49596069 247.6885083 -161.4934082 246.70947266 C-161.49851913 245.70254868 -161.50363007 244.69562469 -161.50889587 243.65818787 C-161.5228035 240.32748482 -161.52183424 236.99698841 -161.51953125 233.66625977 C-161.52341745 231.35224836 -161.52775196 229.03823767 -161.53251648 226.72422791 C-161.53998116 221.8729318 -161.53968553 217.02170848 -161.53442383 212.17041016 C-161.52862809 205.95157788 -161.54556177 199.73304333 -161.5687685 193.51426029 C-161.58349526 188.73504391 -161.58437898 183.9558994 -161.58125877 179.17666435 C-161.58177249 176.88372648 -161.58701961 174.59078463 -161.59707069 172.29786873 C-161.60939738 169.09242489 -161.60266576 165.88756332 -161.59106445 162.68212891 C-161.59870819 161.73391266 -161.60635193 160.78569641 -161.61422729 159.80874634 C-161.57560732 154.9846873 -161.5198586 151.44854363 -158.21875 147.63110352 C-154.98985744 145.59851477 -152.45018574 145.37911705 -148.67076111 145.37281799 C-147.54210129 145.36598999 -146.41344147 145.35916199 -145.25057983 145.35212708 C-144.01667511 145.35468002 -142.78277039 145.35723297 -141.51147461 145.35986328 C-139.51181625 145.35184044 -137.5121579 145.34381516 -135.51249993 145.33569801 C-133.36541318 145.32884577 -131.218369 145.32684305 -129.0712719 145.32614326 C-124.59640062 145.32420219 -120.12168409 145.30614826 -115.64686584 145.28538513 C-104.53425338 145.23620665 -93.42159901 145.20528767 -82.30889893 145.18408203 C-73.66877535 145.16757138 -65.02878462 145.14480065 -56.38875014 145.10106128 C-51.93878485 145.07925194 -47.48907173 145.07123003 -43.03905666 145.07345402 C-39.62484215 145.0713997 -36.21079588 145.0500533 -32.79663086 145.03173828 C-31.5607019 145.03631546 -30.32477295 145.04089264 -29.0513916 145.04560852 C-27.92555161 145.03596069 -26.79971161 145.02631287 -25.63975525 145.01637268 C-24.16945311 145.01335569 -24.16945311 145.01335569 -22.6694479 145.01027775 C-19.78696778 144.56429777 -18.92806401 143.95466164 -17.21875 141.63110352 C-16.19424967 138.55760253 -16.09403961 136.47365651 -16.09417725 133.25479126 C-16.09161423 132.13881058 -16.08905121 131.0228299 -16.08641052 129.87303162 C-16.08851028 128.64802444 -16.09061005 127.42301727 -16.09277344 126.16088867 C-16.08990582 124.18128499 -16.08703033 122.2016813 -16.08385801 120.22207808 C-16.08117705 118.09327723 -16.08073305 115.96448435 -16.08065033 113.83568192 C-16.07950998 109.39817853 -16.06667183 104.96075834 -16.05108643 100.52328491 C-16.04851357 99.77434578 -16.04594072 99.02540664 -16.0432899 98.25377238 C-16.03802338 96.72230905 -16.0327379 95.19084578 -16.02743387 93.65938258 C-15.99232229 83.3286542 -15.96577313 72.99802934 -15.96826172 62.66723633 C-15.96985021 55.69833866 -15.9538181 48.72972472 -15.91755509 41.76091802 C-15.8990929 38.07350478 -15.88975407 34.38656526 -15.90203094 30.69911575 C-15.91559342 26.58572027 -15.89054274 22.47342836 -15.86230469 18.36010742 C-15.87250137 17.13914871 -15.88269806 15.91819 -15.89320374 14.66023254 C-15.83352021 9.82417387 -15.78276175 6.59688878 -13.31719971 2.37498474 C-8.84661759 -0.14116526 -5.05486466 -0.06122411 0 0 Z " fill="#000000" transform="translate(778.21875,335.368896484375)"/>
<path d="M0 0 C1 1 1 1 1.02172852 3.59204102 C0.97459717 4.71795654 0.92746582 5.84387207 0.87890625 7.00390625 C0.83056641 8.21884766 0.78222656 9.43378906 0.73242188 10.68554688 C0.67634766 11.96494141 0.62027344 13.24433594 0.5625 14.5625 C0.51029297 15.84576172 0.45808594 17.12902344 0.40429688 18.45117188 C0.27413154 21.63430603 0.13764688 24.81718059 0 28 C-5.28 28 -10.56 28 -16 28 C-17.72864339 20.71500286 -18.92373883 13.40788271 -20 6 C-28.52966737 2.46176761 -36.54228691 1.48827128 -45.375 4.625 C-50.84381924 7.08162833 -53.35984805 10.11020848 -56.3125 15.3125 C-57.90009105 21.51853773 -57.7795635 27.36660144 -54.47070312 32.97583008 C-48.95102172 40.57272227 -40.0316219 44.07846427 -31.625 47.5 C-16.31317481 53.77747578 -2.64581696 60.78164867 5 76 C8.87940609 85.52217859 7.49949913 95.52506897 4.2578125 105.0234375 C-0.22812939 115.63923788 -8.90619505 122.56144101 -19.328125 126.9375 C-20.20984375 127.288125 -21.0915625 127.63875 -22 128 C-22.73734375 128.309375 -23.4746875 128.61875 -24.234375 128.9375 C-50.27188724 139.43324137 -83.28769965 128.2706728 -108 119 C-108.72799805 118.7304248 -109.45599609 118.46084961 -110.20605469 118.18310547 C-117.85378794 115.27878322 -122.96160969 112.26541452 -127 105 C-123.57342481 103.8458377 -121.31647883 104.17249902 -117.8359375 105.0390625 C-116.80879639 105.2875293 -115.78165527 105.53599609 -114.72338867 105.79199219 C-113.61842041 106.06688477 -112.51345215 106.34177734 -111.375 106.625 C-102.01323184 108.87145565 -92.64476954 110.94511403 -83.1875 112.75 C-81.64425049 113.04704834 -81.64425049 113.04704834 -80.06982422 113.35009766 C-77.04981415 113.92058189 -74.02689829 114.46731252 -71 115 C-69.93692627 115.18836426 -68.87385254 115.37672852 -67.77856445 115.57080078 C-60.42147956 116.79689029 -53.26774087 117.36529897 -45.8125 117.375 C-44.81025391 117.39949219 -43.80800781 117.42398438 -42.77539062 117.44921875 C-35.44750906 117.47778749 -28.07416763 116.49332187 -22.31152344 111.55224609 C-17.41109622 106.01619133 -17.63515585 100.28716676 -17.73828125 93.1953125 C-18.1030568 88.74178419 -18.91655394 86.21233136 -22 83 C-29.76452212 77.54803469 -38.51451757 73.92309617 -47.16601562 70.14453125 C-61.30501807 63.83844581 -73.94161339 55.67997674 -79.8125 40.8125 C-82.57873374 31.64441103 -81.72472646 21.75469894 -78 13 C-75.54632243 8.66516963 -72.64579272 5.37902739 -69 2 C-67.948125 1.01 -67.948125 1.01 -66.875 0 C-47.28998898 -13.62435549 -19.96184108 -11.932745 0 0 Z " fill="#FAFAFA" transform="translate(274,672)"/>
<path d="M0 0 C0 21.78 0 43.56 0 66 C2.97 66.495 2.97 66.495 6 67 C6 68.32 6 69.64 6 71 C0.33357449 72.22517308 -5.23708518 72.09228867 -11 72 C-11.66 70.68 -12.32 69.36 -13 68 C-14.3921875 68.9590625 -14.3921875 68.9590625 -15.8125 69.9375 C-20.42078282 72.91933006 -23.56363126 73.36242458 -29 73 C-35.40100377 71.17114178 -39.32505028 67.53666568 -43 62 C-46.4727473 53.65160749 -46.33411968 43.29237504 -42.96875 34.89453125 C-39.82498311 28.74643874 -35.46996656 25.12071126 -29 23 C-23.3336222 22.03758087 -18.98567787 23.4562868 -14 26 C-13.67 26.33 -13.34 26.66 -13 27 C-12.67 21.06 -12.34 15.12 -12 9 C-14.64 8.67 -17.28 8.34 -20 8 C-20 6.68 -20 5.36 -20 4 C-17.41806023 3.32749476 -14.83467929 2.66182099 -12.25 2 C-11.52039063 1.80921875 -10.79078125 1.6184375 -10.0390625 1.421875 C-6.55428354 0.53484036 -3.61876278 0 0 0 Z " fill="#F5F5F5" transform="translate(422,696)"/>
<path d="M0 0 C9.57 0 19.14 0 29 0 C29.33 1.65 29.66 3.3 30 5 C29.67 5.33 29.34 5.66 29 6 C26.69 6 24.38 6 22 6 C22 13.59 22 21.18 22 29 C30.25 29 38.5 29 47 29 C47 21.41 47 13.82 47 6 C44.69 6 42.38 6 40 6 C39.61781233 4.34385343 39.28604898 2.67542976 39 1 C40 0 40 0 42.77563477 -0.11352539 C43.98533936 -0.10828857 45.19504395 -0.10305176 46.44140625 -0.09765625 C47.74658203 -0.09443359 49.05175781 -0.09121094 50.39648438 -0.08789062 C51.7851569 -0.07953401 53.17382877 -0.07106905 54.5625 -0.0625 C55.95507656 -0.05748666 57.34765481 -0.05292347 58.74023438 -0.04882812 C62.1601987 -0.03699434 65.58007844 -0.0205088 69 0 C69.042721 1.66611905 69.04063832 3.33382885 69 5 C68.67 5.33 68.34 5.66 68 6 C65.69 6 63.38 6 61 6 C61 23.82 61 41.64 61 60 C63.64 60 66.28 60 69 60 C69 61.65 69 63.3 69 65 C59.1 65 49.2 65 39 65 C39.33 63.35 39.66 61.7 40 60 C42.31 60 44.62 60 47 60 C47 51.75 47 43.5 47 35 C38.75 35 30.5 35 22 35 C22 43.25 22 51.5 22 60 C24.31 60 26.62 60 29 60 C29.33 61.65 29.66 63.3 30 65 C20.1 65 10.2 65 0 65 C0 63.35 0 61.7 0 60 C2.64 60 5.28 60 8 60 C8 42.18 8 24.36 8 6 C5.69 6 3.38 6 1 6 C0.67 5.67 0.34 5.34 0 5 C0 3.35 0 1.7 0 0 Z " fill="#ECECEC" transform="translate(433,702)"/>
<path d="M0 0 C5.16514126 3.32864659 8.05561786 7.54460642 10.25 13.25 C11.99919723 21.99598617 11.31389379 29.09119472 7 37 C3.02877664 41.93719661 -2.00108844 45.00036281 -8 47 C-16.39334709 47.86085611 -22.72959338 46.07402026 -29.3125 40.8125 C-35.27714078 35.1642547 -36.15077818 30.08060948 -36.375 22 C-36.16534592 14.14216492 -35.12866348 9.0133782 -29.75 3.1875 C-21.02392763 -4.79166429 -10.37756266 -4.79756369 0 0 Z " fill="#F7F7F7" transform="translate(543,722)"/>
<path d="M0 0 C2.68697596 2.61020522 3.14115569 3.383491 3.375 7.125 C3.1875 10.125 3.1875 10.125 1.1875 12.125 C-1.625 12.5625 -1.625 12.5625 -4.8125 12.125 C-7.98047175 9.47274458 -10.43998777 6.49646475 -12.8125 3.125 C-16.49443033 3.23329207 -18.48501575 4.39161914 -21 6.9375 C-24.80478003 11.97889637 -24.80478003 11.97889637 -25.8125 23.125 C-15.9125 22.795 -6.0125 22.465 4.1875 22.125 C4.1875 36.315 4.1875 50.505 4.1875 65.125 C7.1575 65.62 7.1575 65.62 10.1875 66.125 C10.1875 67.445 10.1875 68.765 10.1875 70.125 C2.2675 70.125 -5.6525 70.125 -13.8125 70.125 C-13.8125 68.805 -13.8125 67.485 -13.8125 66.125 C-10.8425 65.63 -10.8425 65.63 -7.8125 65.125 C-7.8125 53.575 -7.8125 42.025 -7.8125 30.125 C-13.7525 30.125 -19.6925 30.125 -25.8125 30.125 C-25.8125 41.675 -25.8125 53.225 -25.8125 65.125 C-23.1725 65.455 -20.5325 65.785 -17.8125 66.125 C-17.8125 67.445 -17.8125 68.765 -17.8125 70.125 C-26.7225 70.125 -35.6325 70.125 -44.8125 70.125 C-44.8125 68.805 -44.8125 67.485 -44.8125 66.125 C-41.3475 65.63 -41.3475 65.63 -37.8125 65.125 C-37.8125 53.575 -37.8125 42.025 -37.8125 30.125 C-40.1225 30.125 -42.4325 30.125 -44.8125 30.125 C-44.8125 28.145 -44.8125 26.165 -44.8125 24.125 C-41.3475 23.63 -41.3475 23.63 -37.8125 23.125 C-37.71453125 22.48433594 -37.6165625 21.84367188 -37.515625 21.18359375 C-36.05237731 12.71946273 -33.55083657 6.79162545 -26.640625 1.34765625 C-20.05483955 -3.05693957 -6.89428732 -4.4846335 0 0 Z " fill="#F7F7F7" transform="translate(647.8125,696.875)"/>
<path d="M0 0 C0.33 1.98 0.66 3.96 1 6 C1.54269531 5.57847656 2.08539063 5.15695312 2.64453125 4.72265625 C3.35996094 4.17480469 4.07539063 3.62695312 4.8125 3.0625 C5.52019531 2.51722656 6.22789062 1.97195313 6.95703125 1.41015625 C11.02265931 -1.39613769 15.22203982 -1.47144958 20 -1 C24.17754409 0.28539818 25.65126747 1.49964463 28.15625 5.09375 C31.31353135 11.70104078 30.41630013 19.35223234 30.25 26.5 C30.22990494 28.00518458 30.21165948 29.51039505 30.1953125 31.015625 C30.15155298 34.67762737 30.08269216 38.33864578 30 42 C32.97 42.495 32.97 42.495 36 43 C36 44.32 36 45.64 36 47 C27.75 47 19.5 47 11 47 C11 45.68 11 44.36 11 43 C13.31 42.67 15.62 42.34 18 42 C17.90639526 37.78207923 17.80028691 33.56471417 17.68261719 29.34741211 C17.64435134 27.91292932 17.60949419 26.47835135 17.578125 25.04370117 C17.53242138 22.98061122 17.47443807 20.91817505 17.4140625 18.85546875 C17.3826416 17.61434326 17.3512207 16.37321777 17.31884766 15.09448242 C17.22600791 11.83363899 17.22600791 11.83363899 15 9 C12.96735208 8.5597196 12.96735208 8.5597196 10.6875 8.6875 C9.92824219 8.69136719 9.16898437 8.69523438 8.38671875 8.69921875 C5.48177266 8.9633187 5.48177266 8.9633187 1 11 C1 21.23 1 31.46 1 42 C2.65 42.33 4.3 42.66 6 43 C6 44.32 6 45.64 6 47 C-1.92 47 -9.84 47 -18 47 C-18 45.68 -18 44.36 -18 43 C-15.03 42.505 -15.03 42.505 -12 42 C-12 31.44 -12 20.88 -12 10 C-14.31 9.67 -16.62 9.34 -19 9 C-19 7.68 -19 6.36 -19 5 C-16.58848443 3.96520787 -14.17205531 2.9470628 -11.75 1.9375 C-11.06808594 1.64294922 -10.38617188 1.34839844 -9.68359375 1.04492188 C-5.98010605 -0.48321625 -3.8159653 -1.24129373 0 0 Z " fill="#F4F4F4" transform="translate(335,720)"/>
<path d="M0 0 C1.66854016 3.99772059 0.6236969 7.84202066 0 12 C-1.98 12 -3.96 12 -6 12 C-7.49821059 8.62902617 -8 6.79557881 -8 3 C-9.60379341 2.94583812 -11.20811406 2.90713362 -12.8125 2.875 C-13.70582031 2.85179687 -14.59914063 2.82859375 -15.51953125 2.8046875 C-18.25402714 2.81714173 -18.25402714 2.81714173 -21 5 C-21.66680368 7.95720628 -21.66680368 7.95720628 -21 11 C-17.44946618 13.58635216 -13.70061043 14.86575576 -9.5625 16.25 C-3.85155575 18.41019862 0.10467821 20.49297977 3 26 C4.28285405 30.22587215 4.17892955 32.38953447 2.9375 36.625 C0.11449371 41.54249482 -2.94871869 44.15535476 -8.1875 46.3125 C-17.62068962 48.01356698 -24.31021021 47.03004744 -33 43 C-33 39.04 -33 35.08 -33 31 C-30.69 31 -28.38 31 -26 31 C-25.01 33.97 -24.02 36.94 -23 40 C-21.06318839 40.08107583 -19.1254066 40.13922475 -17.1875 40.1875 C-16.10855469 40.22230469 -15.02960937 40.25710938 -13.91796875 40.29296875 C-11.01145118 40.24605898 -11.01145118 40.24605898 -9.109375 38.64453125 C-7.75864918 36.98499076 -7.75864918 36.98499076 -8.0625 34.5 C-9.22173576 31.40870465 -10.23248867 30.76198221 -13 29 C-15.12660636 28.15804857 -17.27501952 27.36999328 -19.4375 26.625 C-25.24106477 24.46901803 -29.15110002 22.69779995 -32 17 C-33.17736029 6.70650714 -33.17736029 6.70650714 -29.9375 2.5 C-21.89174389 -4.34745201 -9.3086023 -5.8016405 0 0 Z " fill="#F6F6F6" transform="translate(594,722)"/>
<path d="M0 0 C0 21.78 0 43.56 0 66 C3.465 66.495 3.465 66.495 7 67 C7 68.32 7 69.64 7 71 C-1.58 71 -10.16 71 -19 71 C-19 69.68 -19 68.36 -19 67 C-15.535 66.505 -15.535 66.505 -12 66 C-12 47.19 -12 28.38 -12 9 C-14.31 8.67 -16.62 8.34 -19 8 C-19 6.68 -19 5.36 -19 4 C-16.77332235 3.32506659 -14.54354023 2.66036956 -12.3125 2 C-10.45044922 1.443125 -10.45044922 1.443125 -8.55078125 0.875 C-5 0 -5 0 0 0 Z " fill="#FDFDFD" transform="translate(682,696)"/>
<path d="M0 0 C0.33 0.99 0.66 1.98 1 3 C1.680625 2.505 2.36125 2.01 3.0625 1.5 C6.70247525 -0.35871077 8.95462873 -0.43343264 13 0 C17.06355443 1.60652152 19.25666508 4.01978264 21.26953125 7.9140625 C23.22624652 13.50168792 22.7217179 19.0880529 20.3125 24.4375 C18.37711928 27.77552598 16.7204201 29.64711996 13 31 C8.363413 31.56453454 5.26176941 31.1308847 1 29 C1 33.62 1 38.24 1 43 C2.65 43 4.3 43 6 43 C6 43.99 6 44.98 6 46 C0.72 46 -4.56 46 -10 46 C-10 45.01 -10 44.02 -10 43 C-8.02 42.505 -8.02 42.505 -6 42 C-5.67 30.12 -5.34 18.24 -5 6 C-6.65 6 -8.3 6 -10 6 C-10 5.01 -10 4.02 -10 3 C-3.375 0 -3.375 0 0 0 Z " fill="#E8E8E8" transform="translate(664,793)"/>
<path d="M0 0 C3.5677811 2.35149209 5.84221079 4.99692157 7.75 8.8125 C8.47156957 15.94539263 8.17959784 21.06599469 3.75 26.8125 C0.5807122 29.78970975 -2.41383746 30.11000208 -6.625 30.375 C-11.52166538 30.20979537 -14.48512486 29.30001697 -17.9375 25.78125 C-20.82711716 21.44682426 -21.50573039 16.69573483 -21.05078125 11.56640625 C-19.97434755 6.34224639 -17.74452888 2.68339666 -13.5 -0.5 C-8.69459146 -1.96831928 -4.62328441 -1.68927699 0 0 Z " fill="#070707" transform="translate(530.25,794.1875)"/>
<path d="M0 0 C4.03711257 2.25327213 6.05227806 4.99273706 7.49609375 9.3984375 C9.14981429 17.93625052 9.36511889 28.2126279 5 36 C2.34390364 38.94324191 0.87952438 39.83508918 -3 40.5625 C-7.03778042 39.80541617 -8.431804 38.13890623 -11 35 C-13.85026972 30.27456916 -13.32999823 25.49345654 -13.3125 20.125 C-13.32861328 19.14402344 -13.34472656 18.16304687 -13.36132812 17.15234375 C-13.36565917 10.73373384 -12.84849412 5.94671806 -8.1875 1.125 C-5.19222268 -0.41542833 -3.329938 -0.47570543 0 0 Z " fill="#060606" transform="translate(533,724)"/>
<path d="M0 0 C0 14.19 0 28.38 0 43 C1.98 43.33 3.96 43.66 6 44 C6 45.32 6 46.64 6 48 C-1.92 48 -9.84 48 -18 48 C-18 46.68 -18 45.36 -18 44 C-15.03 43.505 -15.03 43.505 -12 43 C-12 32.44 -12 21.88 -12 11 C-14.31 10.67 -16.62 10.34 -19 10 C-19 8.68 -19 7.36 -19 6 C-16.39802798 4.99394407 -13.79370638 3.99497475 -11.1875 3 C-10.08051758 2.57074219 -10.08051758 2.57074219 -8.95117188 2.1328125 C-8.23896484 1.86210938 -7.52675781 1.59140625 -6.79296875 1.3125 C-6.1383667 1.06113281 -5.48376465 0.80976562 -4.80932617 0.55078125 C-3 0 -3 0 0 0 Z " fill="#F6F6F6" transform="translate(305,719)"/>
<path d="M0 0 C4.21480662 1.53360538 4.21480662 1.53360538 6 4 C6.88410035 8.69219895 6.74403853 13.30333951 6.625 18.0625 C6.63144531 19.35478516 6.63789063 20.64707031 6.64453125 21.97851562 C6.53555215 31.47455779 6.53555215 31.47455779 4.09887695 33.86523438 C0.47907385 35.82229437 -3.00368461 35.64940125 -7 35 C-10.58889702 32.86193369 -12.55888031 30.88913523 -14 27 C-14.34290788 24.03896968 -14.37018824 21.10347909 -14.375 18.125 C-14.39949219 17.33480469 -14.42398437 16.54460938 -14.44921875 15.73046875 C-14.47622742 10.31973232 -13.54537379 7.31265617 -10 3 C-6.8095561 -0.1904439 -4.45431361 -0.62360391 0 0 Z " fill="#060606" transform="translate(404,726)"/>
<path d="M0 0 C3.50252011 2.04313673 5.77361702 4.09787233 7 8 C7.1875 11.6875 7.1875 11.6875 7 15 C6 16 6 16 4.14233398 16.11352539 C3.35157471 16.10828857 2.56081543 16.10305176 1.74609375 16.09765625 C0.89208984 16.09443359 0.03808594 16.09121094 -0.84179688 16.08789062 C-2.18854492 16.07532227 -2.18854492 16.07532227 -3.5625 16.0625 C-4.46419922 16.05798828 -5.36589844 16.05347656 -6.29492188 16.04882812 C-8.53001314 16.03700225 -10.76497437 16.0205222 -13 16 C-12.745504 17.48206495 -12.47088238 18.96068615 -12.1875 20.4375 C-12.03667969 21.26121094 -11.88585937 22.08492187 -11.73046875 22.93359375 C-11.48941406 23.61550781 -11.24835937 24.29742188 -11 25 C-5.74461396 26.75179535 -1.51111219 26.64761951 3.5 24.5 C4.325 24.005 5.15 23.51 6 23 C5.4376049 26.26189156 4.5859495 27.91134848 2 30 C-2.35686158 31.45228719 -6.45115105 31.63669736 -11 31 C-14.89370721 29.01746069 -17.39860776 26.03987588 -19 22 C-19.265625 19.37890625 -19.265625 19.37890625 -19.25 16.5625 C-19.25515625 15.63566406 -19.2603125 14.70882812 -19.265625 13.75390625 C-18.82189845 9.15350598 -17.38997991 5.8411592 -14 2.6875 C-9.65092358 -0.83361417 -5.38579756 -1.07715951 0 0 Z " fill="#EAEAEA" transform="translate(603,793)"/>
<path d="M0 0 C0.33 1.32 0.66 2.64 1 4 C1.76183594 3.566875 1.76183594 3.566875 2.5390625 3.125 C6.77409626 0.84093685 10.0715126 -0.89608862 15 0 C17.30275556 1.8670991 18.67823871 3.35647741 20 6 C20.08426094 7.6674606 20.10725143 9.33825187 20.09765625 11.0078125 C20.09443359 11.99394531 20.09121094 12.98007812 20.08789062 13.99609375 C20.07951172 15.02863281 20.07113281 16.06117188 20.0625 17.125 C20.05798828 18.16527344 20.05347656 19.20554687 20.04882812 20.27734375 C20.03701952 22.85161962 20.02055075 25.42578146 20 28 C21.32 28 22.64 28 24 28 C24 28.66 24 29.32 24 30 C19.38 30 14.76 30 10 30 C10 29.34 10 28.68 10 28 C10.99 27.67 11.98 27.34 13 27 C13 19.74 13 12.48 13 5 C4.59866609 4.98487055 4.59866609 4.98487055 2 8 C1.63047951 10.12860662 1.63047951 10.12860662 1.5859375 12.5703125 C1.52792969 13.91416016 1.52792969 13.91416016 1.46875 15.28515625 C1.42234375 16.69087891 1.42234375 16.69087891 1.375 18.125 C1.31699219 19.54232422 1.31699219 19.54232422 1.2578125 20.98828125 C1.16338654 23.32532375 1.07781606 25.66235501 1 28 C2.32 28 3.64 28 5 28 C5 28.99 5 29.98 5 31 C0.05 31 -4.9 31 -10 31 C-10 30.01 -10 29.02 -10 28 C-8.68 27.67 -7.36 27.34 -6 27 C-5.67 20.07 -5.34 13.14 -5 6 C-6.65 6 -8.3 6 -10 6 C-10 5.01 -10 4.02 -10 3 C-3.375 0 -3.375 0 0 0 Z " fill="#E1E1E1" transform="translate(474,793)"/>
<path d="M0 0 C5.94 0 11.88 0 18 0 C18 0.99 18 1.98 18 3 C16.02 3.33 14.04 3.66 12 4 C12 15.55 12 27.1 12 39 C16.95 39 21.9 39 27 39 C27 37.02 27 35.04 27 33 C27.33 32.34 27.66 31.68 28 31 C29.32 31 30.64 31 32 31 C31.67 34.96 31.34 38.92 31 43 C20.77 43 10.54 43 0 43 C0 42.01 0 41.02 0 40 C2.475 39.505 2.475 39.505 5 39 C5.33 27.12 5.66 15.24 6 3 C4.02 3 2.04 3 0 3 C0 2.01 0 1.02 0 0 Z " fill="#E9E9E9" transform="translate(396,781)"/>
<path d="M0 0 C3.5677811 2.35149209 5.84221079 4.99692157 7.75 8.8125 C8.47156957 15.94539263 8.17959784 21.06599469 3.75 26.8125 C0.5807122 29.78970975 -2.41383746 30.11000208 -6.625 30.375 C-11.52166538 30.20979537 -14.48512486 29.30001697 -17.9375 25.78125 C-20.82711716 21.44682426 -21.50573039 16.69573483 -21.05078125 11.56640625 C-19.97434755 6.34224639 -17.74452888 2.68339666 -13.5 -0.5 C-8.69459146 -1.96831928 -4.62328441 -1.68927699 0 0 Z M-12.625 3.625 C-16.03916943 8.2209973 -15.73198049 13.31958444 -15.25 18.8125 C-14.51738925 21.46226746 -13.59712486 23.37731275 -12.25 25.8125 C-9.0025812 27.4362094 -5.74920883 27.49021238 -2.25 26.8125 C1.10991884 23.87257101 1.60892998 22.10645256 2.08984375 17.6953125 C2.25653115 11.81458105 2.35282505 7.68380135 -1.25 2.8125 C-5.22889556 0.82305222 -9.10440471 0.93822991 -12.625 3.625 Z " fill="#F2F2F2" transform="translate(530.25,794.1875)"/>
<path d="M0 0 C0.639375 0.33 1.27875 0.66 1.9375 1 C1.9375 3.31 1.9375 5.62 1.9375 8 C0.6175 8 -0.7025 8 -2.0625 8 C-2.3925 6.35 -2.7225 4.7 -3.0625 3 C-5.7025 3 -8.3425 3 -11.0625 3 C-11.0625 4.98 -11.0625 6.96 -11.0625 9 C-10.23105469 9.39832031 -9.39960937 9.79664063 -8.54296875 10.20703125 C-7.45628906 10.73683594 -6.36960937 11.26664063 -5.25 11.8125 C-3.63158203 12.59560547 -3.63158203 12.59560547 -1.98046875 13.39453125 C0.52389031 14.77243161 2.20685478 15.76138383 3.9375 18 C4.4375 20.875 4.4375 20.875 3.9375 24 C1.764865 26.57285724 -0.04243838 28.48996919 -3.0625 30 C-5.03887414 30.12227926 -7.0198831 30.17549929 -9 30.1875 C-10.06089844 30.20167969 -11.12179687 30.21585938 -12.21484375 30.23046875 C-15.0625 30 -15.0625 30 -18.0625 28 C-18.25 24.375 -18.25 24.375 -18.0625 21 C-16.7425 21 -15.4225 21 -14.0625 21 C-13.7325 22.98 -13.4025 24.96 -13.0625 27 C-11.60369891 26.85892253 -10.14546449 26.71197585 -8.6875 26.5625 C-7.87539063 26.48128906 -7.06328125 26.40007813 -6.2265625 26.31640625 C-4.01977195 26.10909886 -4.01977195 26.10909886 -2.0625 25 C-2.09989437 22.59274556 -2.09989437 22.59274556 -3.0625 20 C-5.73398667 18.15624358 -5.73398667 18.15624358 -9 16.8125 C-14.92771739 14.13478261 -14.92771739 14.13478261 -17.0625 12 C-17.62359143 8.94057516 -17.57419103 6.06470267 -17.0625 3 C-12.82129377 -2.60933727 -6.15254278 -2.00899356 0 0 Z " fill="#EEEEEE" transform="translate(640.0625,794)"/>
<path d="M0 0 C1.94140625 0.4296875 1.94140625 0.4296875 4.44140625 2.8046875 C6.89368921 8.73103798 6.8782003 13.93157003 4.62890625 19.9296875 C2.94140625 22.4296875 2.94140625 22.4296875 -0.05859375 24.4296875 C-6.51142394 23.97685731 -6.51142394 23.97685731 -9.05859375 21.4296875 C-9.50420355 18.28308818 -9.38271372 15.10426257 -9.37109375 11.9296875 C-9.38720703 11.04925781 -9.40332031 10.16882813 -9.41992188 9.26171875 C-9.42056641 8.41996094 -9.42121094 7.57820312 -9.421875 6.7109375 C-9.42485596 5.93814453 -9.42783691 5.16535156 -9.4309082 4.36914062 C-9.30804443 3.72912109 -9.18518066 3.08910156 -9.05859375 2.4296875 C-5.86597602 0.30127568 -3.81847433 -0.12657926 0 0 Z " fill="#040404" transform="translate(674.05859375,796.5703125)"/>
<path d="M0 0 C0.99 0.66 1.98 1.32 3 2 C3.1875 5.625 3.1875 5.625 3 9 C1.68 8.67 0.36 8.34 -1 8 C-1.33 6.68 -1.66 5.36 -2 4 C-4.33294775 3.95758277 -6.66702567 3.95907063 -9 4 C-10.29633621 5.06645115 -10.29633621 5.06645115 -10.0625 7.5625 C-10.041875 8.366875 -10.02125 9.17125 -10 10 C-9.16855469 10.39832031 -8.33710937 10.79664063 -7.48046875 11.20703125 C-6.39378906 11.73683594 -5.30710937 12.26664063 -4.1875 12.8125 C-2.56908203 13.59560547 -2.56908203 13.59560547 -0.91796875 14.39453125 C1.58548965 15.77193607 3.27324889 16.75877167 5 19 C5.58817732 22.86516526 5.32063332 24.50246553 3.1875 27.8125 C-0.12968323 31.12968323 -2.93715487 31.15696849 -7.4375 31.1875 C-8.85869141 31.20876953 -8.85869141 31.20876953 -10.30859375 31.23046875 C-13.04501644 30.99614518 -14.66428123 30.39701383 -17 29 C-17 26.69 -17 24.38 -17 22 C-15.68 22 -14.36 22 -13 22 C-12.67 23.98 -12.34 25.96 -12 28 C-8.7 27.67 -5.4 27.34 -2 27 C-1.25042843 23.52852158 -1.25042843 23.52852158 -1 20 C-1.66386719 19.84144531 -2.32773437 19.68289063 -3.01171875 19.51953125 C-8.51569716 18.06519535 -12.64870599 16.91523122 -16 12 C-16.6875 8.5 -16.6875 8.5 -16 5 C-11.56264997 -0.48830135 -6.84992877 -1.12003999 0 0 Z " fill="#F0F0F0" transform="translate(567,793)"/>
<path d="M0 0 C2.30275556 1.8670991 3.67823871 3.35647741 5 6 C5.08426094 7.6674606 5.10725143 9.33825187 5.09765625 11.0078125 C5.09443359 11.99394531 5.09121094 12.98007812 5.08789062 13.99609375 C5.07951172 15.02863281 5.07113281 16.06117188 5.0625 17.125 C5.05798828 18.16527344 5.05347656 19.20554687 5.04882812 20.27734375 C5.03701952 22.85161962 5.02055075 25.42578146 5 28 C6.32 28 7.64 28 9 28 C9 28.66 9 29.32 9 30 C4.38 30 -0.24 30 -5 30 C-5 29.34 -5 28.68 -5 28 C-4.01 27.67 -3.02 27.34 -2 27 C-2 19.74 -2 12.48 -2 5 C-5.3 5.33 -8.6 5.66 -12 6 C-11.67 4.68 -11.34 3.36 -11 2 C-7.38167625 -0.06761357 -4.11463221 -0.5252722 0 0 Z " fill="#EEEEEE" transform="translate(489,793)"/>
<path d="M0 0 C0 9.24 0 18.48 0 28 C1.65 28 3.3 28 5 28 C5 28.99 5 29.98 5 31 C0.05 31 -4.9 31 -10 31 C-10 30.01 -10 29.02 -10 28 C-8.35 28 -6.7 28 -5 28 C-5 20.74 -5 13.48 -5 6 C-6.65 6 -8.3 6 -10 6 C-10 5.01 -10 4.02 -10 3 C-3.375 0 -3.375 0 0 0 Z " fill="#F0F0F0" transform="translate(449,793)"/>
<path d="M0 0 C2.9375 2.125 2.9375 2.125 5 5 C5 8.23421175 4.53173428 10.11377619 2.875 12.875 C-0.13296839 14.67978104 -2.57862792 14.36014443 -6 14 C-8.4375 12.9375 -8.4375 12.9375 -10 11 C-10.57491549 7.04745604 -10.61372366 4.92058549 -8.375 1.5625 C-5.24316508 -0.49791771 -3.68455227 -0.6767545 0 0 Z " fill="#F6F6F6" transform="translate(302,696)"/>
<path d="M0 0 C3.4375 0.5 3.4375 0.5 5.375 1.625 C6.89904563 4.31449229 6.70107307 6.46890973 6.4375 9.5 C5.4375 10.5 5.4375 10.5 2.27734375 10.59765625 C0.34568359 10.58025391 0.34568359 10.58025391 -1.625 10.5625 C-2.91535156 10.55347656 -4.20570313 10.54445313 -5.53515625 10.53515625 C-6.53417969 10.52355469 -7.53320312 10.51195312 -8.5625 10.5 C-7.57731796 4.75310474 -6.27776202 0.88108941 0 0 Z " fill="#0E0E0E" transform="translate(597.5625,795.5)"/>
<path d="M0 0 C1.32 0 2.64 0 4 0 C4.33 1.98 4.66 3.96 5 6 C7.97 6 10.94 6 14 6 C13.67 6.99 13.34 7.98 13 9 C11.39620659 9.05416188 9.79188594 9.09286638 8.1875 9.125 C7.29417969 9.14820313 6.40085937 9.17140625 5.48046875 9.1953125 C3 9 3 9 0 7 C-0.1875 3.375 -0.1875 3.375 0 0 Z " fill="#E5E5E5" transform="translate(622,815)"/>
<path d="M0 0 C2.5625 0.1875 2.5625 0.1875 4.5625 2.1875 C4.1875 4.8125 4.1875 4.8125 3.5625 7.1875 C1.5710944 7.56883299 -0.43029077 7.90075582 -2.4375 8.1875 C-3.4375 7.1875 -3.4375 7.1875 -3.5625 4.1875 C-3.39891479 0.26145498 -3.39891479 0.26145498 0 0 Z " fill="#EBEBEB" transform="translate(446.4375,777.8125)"/>
<path d="M0 0 C6.625 -0.25 6.625 -0.25 10 2 C10.1875 5.625 10.1875 5.625 10 9 C8.68 8.67 7.36 8.34 6 8 C5.67 6.68 5.34 5.36 5 4 C2.03 3.505 2.03 3.505 -1 3 C-0.67 2.01 -0.34 1.02 0 0 Z " fill="#E9E9E9" transform="translate(560,793)"/>
</svg>
